<svg width="32" height="32" viewBox="0 0 32 32" fill="none" xmlns="http://www.w3.org/2000/svg">
<path fill-rule="evenodd" clip-rule="evenodd" d="M2.6665 16.0003C2.6665 8.64033 8.6265 2.66699 15.9998 2.66699C23.3598 2.66699 29.3332 8.64033 29.3332 16.0003C29.3332 23.3737 23.3598 29.3337 15.9998 29.3337C8.6265 29.3337 2.6665 23.3737 2.6665 16.0003ZM18.9732 18.4403L21.1332 11.6136C21.2799 11.1469 20.8532 10.7069 20.3865 10.8536L13.5598 12.9869C13.2798 13.0803 13.0532 13.2936 12.9732 13.5736L10.8398 20.4136C10.6932 20.8669 11.1332 21.3069 11.5865 21.1603L18.3865 19.0269C18.6665 18.9469 18.8932 18.7203 18.9732 18.4403Z" fill="white" fill-opacity="0.99"/>
</svg>
