<svg width="32" height="32" viewBox="0 0 32 32" fill="none" xmlns="http://www.w3.org/2000/svg">
<path fill-rule="evenodd" clip-rule="evenodd" d="M10.9238 13.6504L20.7232 3.86726C22.3279 2.2669 24.9287 2.2669 26.5334 3.86726L28.1296 5.46078C29.7345 7.06302 29.7345 9.66165 28.1296 11.2622L18.2834 21.092C17.5651 21.8091 16.5911 22.2122 15.5752 22.2122H10.6633C10.1106 22.2122 9.66642 21.7576 9.68016 21.2059L9.80343 16.2573C9.82815 15.2773 10.2291 14.3439 10.9238 13.6504ZM26.7388 6.84925L25.1434 5.25648C24.3066 4.42196 22.95 4.42196 22.1136 5.2561L21.3075 6.06088L25.9327 10.6784L26.7392 9.87329C27.5755 9.03929 27.5755 7.68452 26.7388 6.84925ZM24.5419 12.0669L19.9167 7.44937L12.3146 15.0388C11.9767 15.3762 11.7817 15.8301 11.7697 16.3064L11.6706 20.2473L15.5753 20.2485C16.0075 20.2485 16.4243 20.0984 16.7559 19.8271L16.8926 19.7035L24.5419 12.0669ZM15.113 2.71747C15.6562 2.71747 16.0965 3.15704 16.0965 3.69927C16.0965 4.19632 15.7265 4.60711 15.2465 4.67212L15.113 4.68108H10.2103C6.90387 4.68108 4.76223 6.87079 4.63911 10.2713L4.6335 10.5837V21.4674C4.6335 24.945 6.671 27.2324 9.91231 27.364L10.2103 27.37H21.7808C25.0954 27.37 27.2305 25.185 27.3532 21.7802L27.3588 21.4674V16.1944C27.3588 15.6522 27.7991 15.2126 28.3423 15.2126C28.8401 15.2126 29.2516 15.582 29.3167 16.0612L29.3257 16.1944V21.4674C29.3257 25.9995 26.4501 29.1861 22.0875 29.3286L21.7808 29.3336H10.2103C5.78037 29.3336 2.80426 26.2498 2.67127 21.7813L2.66663 21.4674V10.5837C2.66663 6.05599 5.54963 2.86516 9.90409 2.72246L10.2103 2.71747H15.113Z" fill="white" fill-opacity="0.99"/>
</svg>
