<svg width="32" height="32" viewBox="0 0 32 32" fill="none" xmlns="http://www.w3.org/2000/svg">
<path fill-rule="evenodd" clip-rule="evenodd" d="M16.7643 6H8.40566C4.98552 6 2.66699 8.29212 2.66699 11.584V20.9373C2.66699 24.2292 4.98552 26.5213 8.40566 26.5213H16.7643C19.9885 26.5213 22.2414 24.4741 22.4817 21.4759L26.0109 22.9184L26.1877 22.9829C27.7234 23.4786 29.3333 22.337 29.3333 20.6874V11.8354L29.3262 11.6474C29.2049 10.0385 27.5386 8.97968 26.0114 9.60282L22.4818 11.0455C22.2422 8.04518 19.9938 6 16.7643 6ZM20.503 12.49C20.5021 12.5142 20.5021 12.5385 20.503 12.5628V19.9586C20.5021 19.9829 20.5021 20.0072 20.503 20.0314V20.9373C20.503 23.1158 19.0793 24.5213 16.7643 24.5213H8.40566C6.08499 24.5213 4.66699 23.1195 4.66699 20.9373V11.584C4.66699 9.40185 6.08499 8 8.40566 8H16.7643C19.0842 8 20.503 9.40237 20.503 11.584V12.49ZM22.503 19.324V13.1974L26.7676 11.4544L26.858 11.4288C27.0994 11.3896 27.3333 11.5756 27.3333 11.8354V20.6874L27.3228 20.7808C27.2679 21.0193 27.0077 21.165 26.7671 21.0668L22.503 19.324Z" fill="white" fill-opacity="0.99"/>
</svg>
