<svg width="32" height="32" viewBox="0 0 32 32" fill="none" xmlns="http://www.w3.org/2000/svg">
<path fill-rule="evenodd" clip-rule="evenodd" d="M16 2.66699C8.63616 2.66699 2.66663 8.63653 2.66663 16.0003C2.66663 23.3641 8.63616 29.3337 16 29.3337C23.3638 29.3337 29.3333 23.3641 29.3333 16.0003C29.3333 8.63653 23.3638 2.66699 16 2.66699ZM16 4.59732C22.2977 4.59732 27.403 9.70263 27.403 16.0003C27.403 22.2981 22.2977 27.4034 16 27.4034C9.70225 27.4034 4.59694 22.2981 4.59694 16.0003C4.59694 9.70263 9.70225 4.59732 16 4.59732ZM20.0111 10.7799L13.4619 12.8294C13.16 12.9239 12.9235 13.1604 12.829 13.4623L10.7794 20.0115C10.5468 20.755 11.2454 21.4536 11.9888 21.2209L18.5381 19.1713C18.84 19.0768 19.0764 18.8404 19.1709 18.5385L21.2205 11.9892C21.4532 11.2458 20.7546 10.5472 20.0111 10.7799ZM18.8272 13.1718L17.4786 17.479L13.1714 18.8277L14.52 14.5205L18.8272 13.1718Z" fill="white" fill-opacity="0.99"/>
</svg>
