<svg width="32" height="32" viewBox="0 0 32 32" fill="none" xmlns="http://www.w3.org/2000/svg">
<path fill-rule="evenodd" clip-rule="evenodd" d="M22.2203 2.68077C24.1384 2.5609 26.0298 3.22687 27.455 4.53219C28.7603 5.95738 29.4263 7.84876 29.3197 9.78009V22.2206C29.4396 24.1519 28.7603 26.0433 27.4683 27.4685C26.0431 28.7738 24.1384 29.4398 22.2203 29.3199H9.77979C7.84843 29.4398 5.95704 28.7738 4.53184 27.4685C3.22651 26.0433 2.56053 24.1519 2.68041 22.2206V9.78009C2.56053 7.84876 3.22651 5.95738 4.53184 4.53219C5.95704 3.22687 7.84843 2.5609 9.77979 2.68077H22.2203ZM14.6415 22.4603L23.6056 13.4696C24.4181 12.6438 24.4181 11.3118 23.6056 10.4993L21.8741 8.7678C21.0482 7.94199 19.7163 7.94199 18.8905 8.7678L17.998 9.67353C17.8648 9.80672 17.8648 10.0332 17.998 10.1664C17.998 10.1664 20.1159 12.2708 20.1558 12.3241C20.3023 12.484 20.3956 12.6971 20.3956 12.9368C20.3956 13.4163 20.0093 13.8159 19.5165 13.8159C19.29 13.8159 19.0769 13.7227 18.9304 13.5762L16.706 11.3651C16.5995 11.2586 16.413 11.2586 16.3064 11.3651L9.95297 17.7185C9.51342 18.1581 9.26034 18.7441 9.24702 19.3702L9.16711 22.5269C9.16711 22.7001 9.22039 22.8599 9.34026 22.9798C9.46014 23.0996 9.61998 23.1662 9.79313 23.1662H12.9232C13.5626 23.1662 14.1753 22.9132 14.6415 22.4603Z" fill="white" fill-opacity="0.99"/>
</svg>
