<svg width="32" height="32" viewBox="0 0 32 32" fill="none" xmlns="http://www.w3.org/2000/svg">
<path fill-rule="evenodd" clip-rule="evenodd" d="M8.15068 6H15.8734C19.1028 6 21.3575 8.22538 21.3575 11.4146V20.5854C21.3575 23.7746 19.1028 26 15.8734 26H8.15068C4.92131 26 2.66663 23.7746 2.66663 20.5854V11.4146C2.66663 8.22538 4.92131 6 8.15068 6ZM26.6106 9.17203C27.1959 8.87423 27.8826 8.90536 28.4413 9.25731C29 9.6079 29.3333 10.217 29.3333 10.883V21.1179C29.3333 21.7852 29 22.393 28.4413 22.7436C28.1359 22.9345 27.7946 23.0319 27.4506 23.0319C27.1639 23.0319 26.8773 22.9642 26.6093 22.8275L24.6346 21.8313C23.9039 21.4604 23.4506 20.7159 23.4506 19.8888V12.1108C23.4506 11.2824 23.9039 10.5378 24.6346 10.1697L26.6106 9.17203Z" fill="white" fill-opacity="0.99"/>
</svg>
